<svg width="11" height="12" viewBox="0 0 11 12" fill="none" xmlns="http://www.w3.org/2000/svg">
<path d="M10.9073 6.82909L9.94647 3.41148C9.66485 2.41026 9.05279 1.53084 8.20758 0.912999C7.36237 0.295161 6.33252 -0.0256352 5.28172 0.00160173C4.23093 0.0288387 3.2195 0.402546 2.4082 1.06332C1.5969 1.7241 1.03229 2.63402 0.804118 3.64845L0.0602488 6.95557C-0.0219179 7.321 -0.0200182 7.7 0.0658078 8.0646C0.151634 8.42921 0.319194 8.7701 0.556119 9.06211C0.793043 9.35412 1.09328 9.58979 1.43467 9.75173C1.77605 9.91367 2.14987 9.99773 2.52852 9.99772H3.09186C3.20792 10.5628 3.51801 11.0708 3.9696 11.4357C4.42119 11.8007 4.98649 12 5.56973 12C6.15297 12 6.71828 11.8007 7.16986 11.4357C7.62145 11.0708 7.93155 10.5628 8.04761 9.99772H8.47138C8.86117 9.99775 9.24569 9.90868 9.5949 9.73747C9.9441 9.56626 10.2485 9.31755 10.4844 9.01077C10.7203 8.70398 10.8813 8.34743 10.9547 7.96897C11.0282 7.59052 11.0121 7.20039 10.9078 6.82909H10.9073ZM5.56973 10.9976C5.25709 10.9963 4.95247 10.8996 4.69757 10.7206C4.44267 10.5416 4.24993 10.2891 4.14571 9.99772H6.99375C6.88954 10.2891 6.6968 10.5416 6.44189 10.7206C6.18699 10.8996 5.88238 10.9963 5.56973 10.9976ZM9.67896 8.40541C9.53805 8.59022 9.35548 8.74 9.14577 8.84284C8.93605 8.94568 8.70497 8.99875 8.47087 8.99784H2.52852C2.30135 8.9978 2.0771 8.94733 1.87231 8.85014C1.66751 8.75296 1.48741 8.61155 1.34529 8.43635C1.20317 8.26115 1.10266 8.05663 1.05118 7.83789C0.999699 7.61915 0.998565 7.39178 1.04786 7.17255L1.79122 3.86493C1.97042 3.06812 2.41388 2.3534 3.05113 1.83438C3.68837 1.31537 4.48282 1.02184 5.30818 1.00046C6.13354 0.979085 6.94244 1.23109 7.6063 1.71641C8.27015 2.20173 8.75086 2.89251 8.97201 3.67895L9.93282 7.09656C9.99631 7.31922 10.0064 7.55344 9.96235 7.78064C9.91828 8.00784 9.82125 8.22176 9.67896 8.40541Z" />
</svg>
