<svg width="15" height="16" viewBox="0 0 15 16" fill="none" xmlns="http://www.w3.org/2000/svg">
<path d="M14.8736 9.10545L13.5634 4.54864C13.1793 3.21368 12.3447 2.04112 11.1922 1.21733C10.0396 0.393548 8.63525 -0.0341803 7.20235 0.00213564C5.76945 0.0384516 4.39022 0.536728 3.2839 1.41776C2.17758 2.29879 1.40766 3.51202 1.09652 4.8646L0.0821575 9.2741C-0.029888 9.76133 -0.0272975 10.2667 0.0897378 10.7528C0.206773 11.2389 0.435265 11.6935 0.758344 12.0828C1.08142 12.4722 1.49084 12.7864 1.95636 13.0023C2.42189 13.2182 2.93164 13.3303 3.44798 13.3303H4.21617C4.37443 14.0837 4.79729 14.7611 5.41309 15.2477C6.02889 15.7342 6.79976 16 7.59509 16C8.39042 16 9.16129 15.7342 9.77709 15.2477C10.3929 14.7611 10.8157 14.0837 10.974 13.3303H11.5519C12.0834 13.3303 12.6078 13.2116 13.0839 12.9833C13.5601 12.755 13.9753 12.4234 14.297 12.0144C14.6186 11.6053 14.8381 11.1299 14.9383 10.6253C15.0384 10.1207 15.0165 9.60052 14.8743 9.10545H14.8736ZM7.59509 14.6635C7.16875 14.6618 6.75337 14.5328 6.40578 14.2941C6.05818 14.0555 5.79535 13.7189 5.65324 13.3303H9.53694C9.39483 13.7189 9.132 14.0555 8.7844 14.2941C8.43681 14.5328 8.02143 14.6618 7.59509 14.6635ZM13.1986 11.2072C13.0064 11.4536 12.7575 11.6533 12.4715 11.7904C12.1855 11.9276 11.8704 11.9983 11.5512 11.9971H3.44798C3.13821 11.9971 2.83241 11.9298 2.55314 11.8002C2.27388 11.6706 2.02828 11.4821 1.83448 11.2485C1.64068 11.0149 1.50362 10.7422 1.43342 10.4505C1.36323 10.1589 1.36168 9.8557 1.4289 9.5634L2.44258 5.15323C2.68693 4.09083 3.29166 3.13787 4.16063 2.44584C5.02959 1.75382 6.11293 1.36245 7.23842 1.33395C8.36391 1.30545 9.46696 1.64145 10.3722 2.28854C11.2775 2.93564 11.933 3.85668 12.2346 4.90526L13.5448 9.46207C13.6313 9.75895 13.6451 10.0713 13.585 10.3742C13.5249 10.6771 13.3926 10.9623 13.1986 11.2072Z" fill="#FDE097"/>
</svg>
