<svg width="16" height="16" viewBox="0 0 16 16" fill="none" xmlns="http://www.w3.org/2000/svg">
<path d="M10.2326 16H5.76744C1.72651 16 0 14.2735 0 10.2326V5.76744C0 1.72651 1.72651 0 5.76744 0H10.2326C14.2735 0 16 1.72651 16 5.76744V10.2326C16 14.2735 14.2735 16 10.2326 16ZM5.76744 1.11628C2.33674 1.11628 1.11628 2.33674 1.11628 5.76744V10.2326C1.11628 13.6633 2.33674 14.8837 5.76744 14.8837H10.2326C13.6633 14.8837 14.8837 13.6633 14.8837 10.2326V5.76744C14.8837 2.33674 13.6633 1.11628 10.2326 1.11628H5.76744Z" fill="#B97BF8"/>
<path d="M4.52457 10.4112C4.4055 10.4112 4.28643 10.374 4.18225 10.2921C3.93667 10.1061 3.89201 9.7563 4.07806 9.51072L5.84922 7.21118C6.06504 6.93583 6.37015 6.75723 6.71992 6.71258C7.06225 6.66793 7.41201 6.76467 7.68736 6.98048L9.04922 8.05211C9.10132 8.09676 9.15341 8.09676 9.19062 8.08932C9.22039 8.08932 9.27248 8.07444 9.31713 8.0149L11.0362 5.79723C11.2222 5.55165 11.5795 5.507 11.8176 5.70048C12.0632 5.88653 12.1078 6.2363 11.9143 6.48188L10.1953 8.69955C9.97946 8.9749 9.67434 9.15351 9.32457 9.19072C8.9748 9.23537 8.63248 9.13862 8.35713 8.92281L6.99527 7.85118C6.94318 7.80653 6.88364 7.80653 6.85387 7.81397C6.82411 7.81397 6.77201 7.82886 6.72736 7.88839L4.9562 10.1879C4.85946 10.3368 4.69574 10.4112 4.52457 10.4112Z" fill="#B97BF8"/>
</svg>
