<svg width="14" height="13" viewBox="0 0 14 13" fill="none" xmlns="http://www.w3.org/2000/svg">
<path fill-rule="evenodd" clip-rule="evenodd" d="M2.51282 1.40541V0.527027C2.51282 0.236108 2.75405 0 3.05128 0H10.9487C11.2459 0 11.4872 0.236108 11.4872 0.527027V1.40541H12.7436C13.0767 1.40541 13.3962 1.5347 13.6317 1.76589C13.8679 1.99638 14 2.30908 14 2.63514V3.33784C14 4.22324 13.641 5.07211 13.0013 5.69822C12.4205 6.266 11.6523 6.60822 10.8389 6.66654C10.1403 7.79368 8.93846 8.58843 7.53846 8.75216V9.83784H8.4359C8.95928 9.83784 9.46185 10.0416 9.83231 10.4035C10.2021 10.7661 10.4103 11.258 10.4103 11.7703C10.4103 12.4498 9.84738 13 9.15385 13C8.05036 13 5.94964 13 4.84615 13C4.15262 13 3.58974 12.4498 3.58974 11.7703C3.58974 11.258 3.79795 10.7661 4.16769 10.4035C4.53815 10.0416 5.04072 9.83784 5.5641 9.83784H6.46154V8.75216C5.06154 8.58843 3.85969 7.79368 3.16113 6.66654C2.34769 6.60822 1.57949 6.266 0.998667 5.69822C0.358974 5.07211 0 4.22324 0 3.33784C0 3.08205 0 2.84173 0 2.63514C0 2.30908 0.132103 1.99638 0.368308 1.76589C0.603795 1.5347 0.923282 1.40541 1.25641 1.40541H2.51282ZM8.4359 10.8919H5.5641C5.32574 10.8919 5.09815 10.9846 4.92944 11.1491C4.76144 11.3142 4.66667 11.537 4.66667 11.7703C4.66667 11.8672 4.74708 11.9459 4.84615 11.9459H9.15385C9.25292 11.9459 9.33333 11.8672 9.33333 11.7703C9.33333 11.537 9.23856 11.3142 9.07056 11.1491C8.90185 10.9846 8.67426 10.8919 8.4359 10.8919ZM7 7.72973C8.88318 7.72973 10.4103 6.23508 10.4103 4.39189V1.05405H3.58974V4.39189C3.58974 6.23508 5.11682 7.72973 7 7.72973ZM2.51282 2.45946H1.25641C1.20903 2.45946 1.16308 2.47773 1.12933 2.51076C1.09559 2.54378 1.07692 2.58876 1.07692 2.63514V3.33784C1.07692 3.94357 1.32246 4.5247 1.76041 4.95265C2.01528 5.20211 2.32256 5.38762 2.65641 5.49935C2.56308 5.14519 2.51282 4.77416 2.51282 4.39189V2.45946ZM11.4872 2.45946V4.39189C11.4872 4.77416 11.4369 5.14519 11.3436 5.49935C11.6774 5.38762 11.9847 5.20211 12.2396 4.95265C12.6775 4.5247 12.9231 3.94357 12.9231 3.33784C12.9231 3.08205 12.9231 2.84173 12.9231 2.63514C12.9231 2.58876 12.9044 2.54378 12.8707 2.51076C12.8369 2.47773 12.791 2.45946 12.7436 2.45946H11.4872Z" fill="white"/>
</svg>
