<svg width="13" height="13" viewBox="0 0 13 13" fill="none" xmlns="http://www.w3.org/2000/svg">
<path d="M2.29283 1.86383C1.6492 2.4873 1.14345 3.2388 0.80821 4.06982C0.472973 4.90084 0.3157 5.79291 0.346542 6.68847C0.374662 7.58774 0.593696 8.47074 0.98911 9.2789C1.38452 10.0871 1.94728 10.8019 2.64003 11.376C3.72212 12.2655 5.06391 12.7795 6.46339 12.8405C7.86287 12.9015 9.24429 12.5062 10.3997 11.7142C11.1373 11.1926 11.7664 10.5324 12.2519 9.77053C12.3762 9.56809 12.4442 9.3361 12.4487 9.0986C12.4532 8.86109 12.3942 8.62668 12.2778 8.41963C12.1613 8.21258 11.9917 8.0404 11.7864 7.92092C11.581 7.80144 11.3475 7.739 11.11 7.74005C7.81783 7.83377 5.56811 5.20409 6.07727 1.91784C6.10972 1.68181 6.07832 1.44139 5.98633 1.22161C5.89435 1.00183 5.74514 0.810722 5.55424 0.668168C5.36334 0.525614 5.13773 0.436826 4.90087 0.411046C4.66402 0.385265 4.42459 0.423433 4.20749 0.521576C3.50224 0.864823 2.85597 1.31788 2.29283 1.86383Z" fill="#B97BF8"/>
</svg>
