<svg width="21" height="15" viewBox="0 0 21 15" fill="none" xmlns="http://www.w3.org/2000/svg">
<path d="M17.9126 1.25625C16.618 0.669375 15.2337 0.242861 13.7865 0C13.6087 0.311339 13.4011 0.730097 13.2579 1.06322C11.7195 0.839056 10.1952 0.839056 8.685 1.06322C8.54186 0.730097 8.3295 0.311339 8.15017 0C6.70138 0.242861 5.3155 0.670942 4.02086 1.25935C1.40957 5.08252 0.701694 8.81073 1.05563 12.486C2.78758 13.7391 4.46604 14.5003 6.11618 14.9985C6.52361 14.4552 6.88698 13.8777 7.20002 13.269C6.60383 13.0495 6.03281 12.7787 5.49326 12.4642C5.6364 12.3615 5.77642 12.254 5.91169 12.1435C9.20253 13.6348 12.7781 13.6348 16.0296 12.1435C16.1665 12.254 16.3065 12.3615 16.4481 12.4642C15.9069 12.7802 15.3344 13.0511 14.7382 13.2706C15.0512 13.8777 15.413 14.4567 15.822 15C17.4737 14.5019 19.1538 13.7407 20.8857 12.486C21.301 8.22542 20.1763 4.53146 17.9126 1.25625ZM7.64835 10.2257C6.66047 10.2257 5.85033 9.3322 5.85033 8.24409C5.85033 7.15599 6.64317 6.26091 7.64835 6.26091C8.65356 6.26091 9.46367 7.15442 9.44637 8.24409C9.44793 9.3322 8.65356 10.2257 7.64835 10.2257ZM14.293 10.2257C13.3051 10.2257 12.495 9.3322 12.495 8.24409C12.495 7.15599 13.2878 6.26091 14.293 6.26091C15.2982 6.26091 16.1083 7.15442 16.091 8.24409C16.091 9.3322 15.2982 10.2257 14.293 10.2257Z" fill="#5865F2"/>
</svg>
