<svg width="24" height="22" viewBox="0 0 24 22" fill="none" xmlns="http://www.w3.org/2000/svg">
<path d="M14.951 17.6449L11.5422 15.8527L8.13347 17.6449C6.81654 18.3369 5.27707 17.2178 5.52843 15.7521L6.17943 11.9565L3.42167 9.26836C2.35646 8.22993 2.94507 6.41976 4.41669 6.20596L8.22779 5.65216L9.93219 2.19873C10.5912 0.863539 12.4941 0.865208 13.1522 2.19877L14.8566 5.65216L18.6677 6.20596C20.1394 6.41981 20.7278 8.23007 19.6627 9.26836L16.9049 11.9565L17.5559 15.7521C17.8069 17.2145 16.2695 18.3379 14.951 17.6449Z" fill="#FFDB2D"/>
<path d="M4.82948 2.48841L3.90922 1.2218C3.65944 0.878018 3.73563 0.396766 4.07942 0.147032C4.42316 -0.102791 4.90436 -0.0265502 5.15419 0.317188L6.07445 1.58376C6.32422 1.92754 6.24803 2.40879 5.90424 2.65852C5.56069 2.90826 5.07943 2.83229 4.82948 2.48841Z" fill="#FFDB2D"/>
<path d="M0.0378787 13.9037C-0.0934579 13.4996 0.127691 13.0655 0.53189 12.9342L2.05112 12.4405C2.45537 12.309 2.88937 12.5304 3.0207 12.9345C3.15204 13.3387 2.93089 13.7728 2.52669 13.9041L1.00746 14.3978C0.604344 14.5289 0.169441 14.3087 0.0378787 13.9037Z" fill="#FFDB2D"/>
<path d="M11.5421 22C11.1172 22 10.7727 21.6555 10.7727 21.2305V19.6688C10.7727 19.2439 11.1172 18.8994 11.5421 18.8994C11.9671 18.8994 12.3116 19.2439 12.3116 19.6688V21.2305C12.3116 21.6554 11.9671 22 11.5421 22Z" fill="#FFDB2D"/>
<path d="M18.6678 6.20592L14.8567 5.65213L13.1523 2.19873C12.8232 1.53186 12.1827 1.198 11.5422 1.19791V15.8527L14.951 17.6449C16.2695 18.338 17.8069 17.2145 17.5561 15.7522L16.9051 11.9566L19.6629 9.26841C20.7279 8.23007 20.1395 6.41977 18.6678 6.20592Z" fill="#FF9900"/>
<path d="M18.2548 2.48843L19.175 1.22186C19.4248 0.878079 19.3486 0.396827 19.0048 0.147093C18.6611 -0.10273 18.1799 -0.0264892 17.9301 0.317249L17.0098 1.58382C16.76 1.9276 16.8362 2.40885 17.18 2.65859C17.5236 2.90827 18.0048 2.8323 18.2548 2.48843Z" fill="#FF9900"/>
<path d="M23.0463 13.9037C23.1777 13.4996 22.9565 13.0655 22.5523 12.9342L21.0331 12.4405C20.6289 12.309 20.1949 12.5304 20.0635 12.9345C19.9322 13.3387 20.1533 13.7728 20.5575 13.9041L22.0768 14.3978C22.4799 14.5289 22.9148 14.3087 23.0463 13.9037Z" fill="#FF9900"/>
<path d="M11.5422 18.8994V22C11.9672 22 12.3117 21.6555 12.3117 21.2305V19.6688C12.3117 19.2438 11.9672 18.8994 11.5422 18.8994Z" fill="#FF9900"/>
</svg>
