<svg width="17" height="25" viewBox="0 0 17 25" fill="none" xmlns="http://www.w3.org/2000/svg">
<path d="M7.70901 25C7.36153 24.9988 7.01848 24.9234 6.70357 24.7792C6.18919 24.5542 5.77608 24.1526 5.54176 23.6497C5.30744 23.1469 5.268 22.5773 5.43086 22.0479L7.08644 16.6667H3.1856C2.68861 16.6673 2.1984 16.5535 1.75424 16.3345C1.31008 16.1155 0.924327 15.7974 0.627903 15.4056C0.331478 15.0138 0.132622 14.5592 0.0472715 14.0784C-0.0380789 13.5975 -0.00755061 13.1037 0.136411 12.6365L3.34363 2.21984C3.53912 1.57555 3.9421 1.01091 4.49209 0.610665C5.04207 0.210422 5.70938 -0.00383502 6.39388 5.19679e-05H10.3106C10.7558 0.000417741 11.1943 0.106641 11.5886 0.309645C11.9829 0.512648 12.3213 0.806395 12.5748 1.16578C12.8284 1.52517 12.9896 1.93951 13.0447 2.3734C13.0997 2.80728 13.047 3.24781 12.891 3.65734L11.1061 8.33337H13.818C14.3961 8.33332 14.9632 8.48796 15.4586 8.78067C15.9539 9.07337 16.3587 9.49309 16.6294 9.99473C16.9002 10.4964 17.0267 11.061 16.9953 11.6279C16.964 12.1948 16.7759 12.7426 16.4514 13.2125L9.66367 23.9417C9.45384 24.2644 9.165 24.5304 8.82354 24.7153C8.48209 24.9002 8.0989 24.998 7.70901 25ZM6.39388 2.08338C6.16611 2.08316 5.94433 2.15497 5.76134 2.28816C5.57835 2.42136 5.44389 2.60888 5.37784 2.82296L2.17062 13.2396C2.1226 13.3952 2.11235 13.5598 2.14069 13.72C2.16904 13.8802 2.23519 14.0317 2.33384 14.1623C2.4325 14.2929 2.56092 14.399 2.70883 14.4722C2.85674 14.5453 3.02002 14.5834 3.1856 14.5834H8.51505C8.68064 14.5834 8.84392 14.6214 8.99183 14.6946C9.13973 14.7677 9.26816 14.8738 9.36681 15.0044C9.46547 15.135 9.53162 15.2865 9.55996 15.4467C9.5883 15.6069 9.57806 15.7715 9.53004 15.9271L7.46507 22.6375C7.45552 22.6622 7.4513 22.6886 7.45268 22.7149C7.45405 22.7413 7.46099 22.7671 7.47306 22.7907C7.48512 22.8143 7.50205 22.8352 7.52277 22.8521C7.54348 22.8689 7.56754 22.8813 7.5934 22.8885C7.61685 22.9033 7.64318 22.9131 7.67071 22.9172C7.69824 22.9214 7.72635 22.9198 7.75322 22.9127C7.7801 22.9055 7.80515 22.8929 7.82676 22.8756C7.84838 22.8584 7.86607 22.8369 7.8787 22.8125L14.6665 12.0834C14.7852 11.9252 14.8559 11.7374 14.8705 11.5414C14.8852 11.3455 14.8431 11.1495 14.7492 10.9761C14.6622 10.8071 14.5289 10.6653 14.3645 10.5665C14.2 10.4677 14.0108 10.4158 13.818 10.4167H9.57564C9.40423 10.4168 9.23534 10.3761 9.08344 10.2981C8.93155 10.22 8.80117 10.107 8.70348 9.96868C8.60579 9.83034 8.5437 9.67081 8.52252 9.50374C8.50134 9.33667 8.5217 9.16705 8.58187 9.00941L10.9046 2.92609C10.9402 2.83177 10.9522 2.73039 10.9395 2.63055C10.9267 2.53072 10.8896 2.43538 10.8313 2.35265C10.773 2.26992 10.6952 2.20224 10.6046 2.15536C10.5139 2.10848 10.4131 2.08379 10.3106 2.08338H6.39388Z" fill="white"/>
</svg>
