<svg width="16" height="15" viewBox="0 0 16 15" fill="none" xmlns="http://www.w3.org/2000/svg">
<path d="M8.4707 0C4.32945 0 0.970703 3.44302 0.970703 7.6896C0.970703 11.0871 3.11945 13.9694 6.10008 14.9864C6.47445 15.0575 6.5957 14.8191 6.5957 14.6167V13.1851C4.50945 13.6503 4.07508 12.2777 4.07508 12.2777C3.73383 11.3889 3.24195 11.1525 3.24195 11.1525C2.56133 10.6751 3.29383 10.6853 3.29383 10.6853C4.04695 10.7392 4.4432 11.478 4.4432 11.478C5.11195 12.6532 6.19758 12.3136 6.6257 12.1169C6.69258 11.6203 6.88695 11.2806 7.10195 11.089C5.43633 10.8936 3.68508 10.2342 3.68508 7.28846C3.68508 6.44837 3.9782 5.76272 4.45758 5.22444C4.38008 5.03028 4.1232 4.24786 4.5307 3.18926C4.5307 3.18926 5.1607 2.98292 6.59383 3.97745C7.19195 3.80699 7.8332 3.72177 8.4707 3.71856C9.1082 3.72177 9.75008 3.80699 10.3495 3.97745C11.7813 2.98292 12.4101 3.18926 12.4101 3.18926C12.8182 4.24851 12.5613 5.03092 12.4838 5.22444C12.9651 5.76272 13.2557 6.44901 13.2557 7.28846C13.2557 10.2419 11.5013 10.8923 9.83133 11.0826C10.1001 11.321 10.3457 11.7888 10.3457 12.5065V14.6167C10.3457 14.8211 10.4657 15.0614 10.8463 14.9858C13.8245 13.9675 15.9707 11.0858 15.9707 7.6896C15.9707 3.44302 12.6126 0 8.4707 0Z" fill="#BBBFCA"/>
</svg>
