<svg width="17" height="14" viewBox="0 0 17 14" fill="none" xmlns="http://www.w3.org/2000/svg">
<path fill-rule="evenodd" clip-rule="evenodd" d="M8.00587 1.75636L8.46815 1.29408C9.29666 0.465572 10.4208 0 11.5917 0C12.7634 0 13.8875 0.465572 14.716 1.29408C14.716 1.2949 14.7168 1.29572 14.7177 1.29654C15.5462 2.12422 16.0117 3.24833 16.0117 4.42006C16.0117 5.51296 15.8253 7.09443 14.0271 9.31637C12.3331 11.4086 10.6843 12.8118 8.26698 13.9417C8.18487 13.9803 8.09783 13.9992 8.01243 14H7.9993C7.9139 13.9992 7.82686 13.9803 7.74475 13.9417C5.32739 12.8118 3.67859 11.4086 1.98463 9.31637C0.186393 7.09443 0 5.51296 0 4.42006C0 3.24833 0.465572 2.12422 1.29408 1.29654C1.2949 1.29572 1.29572 1.2949 1.29572 1.29408C2.12422 0.465572 3.24833 0 4.42006 0C5.59097 0 6.71507 0.465572 7.54358 1.29408L8.00587 1.75636ZM8.00587 12.7018C10.1013 11.6771 11.5646 10.4011 13.0697 8.54123C14.5887 6.66499 14.7801 5.34299 14.7801 4.42006C14.7801 3.57513 14.4442 2.76469 13.8473 2.16692C13.8465 2.1661 13.8456 2.16528 13.8448 2.16528C13.247 1.56751 12.4366 1.23167 11.5917 1.23167C10.7467 1.23167 9.93713 1.56751 9.33935 2.16528C9.05361 2.45021 8.75308 2.75073 8.44188 3.06194C8.32199 3.18264 8.16352 3.24258 8.00587 3.24258C7.84821 3.24258 7.68974 3.18264 7.56985 3.06194C7.25865 2.75073 6.95812 2.45021 6.67238 2.16528C6.0746 1.56751 5.26499 1.23167 4.42006 1.23167C3.57513 1.23167 2.76469 1.56751 2.16692 2.16528C2.1661 2.16528 2.16528 2.1661 2.16446 2.16692C1.56751 2.76469 1.23167 3.57513 1.23167 4.42006C1.23167 5.34299 1.42299 6.66499 2.94205 8.54123C4.44716 10.4011 5.91038 11.6771 8.00587 12.7018Z" fill="white"/>
</svg>
