<svg width="16" height="16" viewBox="0 0 16 16" fill="none" xmlns="http://www.w3.org/2000/svg">
<path d="M7.99999 3.99255C5.79025 3.99255 3.99255 5.7906 3.99255 8.00035C3.99255 10.2101 5.79025 12.0081 7.99999 12.0081C10.2094 12.0081 12.0074 10.2104 12.0074 8.00035C12.0074 5.79025 10.2094 3.99255 7.99999 3.99255Z" fill="#FDE097"/>
<path d="M8.00001 2.81453C7.56812 2.81453 7.21808 2.46448 7.21808 2.03295V0.781931C7.21808 0.350044 7.56812 0 8.00001 0C8.4319 0 8.78194 0.350044 8.78194 0.781931V2.03295C8.78194 2.46448 8.43154 2.81453 8.00001 2.81453Z" fill="#FDE097"/>
<path d="M8.00001 13.1851C7.56812 13.1851 7.21808 13.5352 7.21808 13.9671V15.2177C7.21808 15.65 7.56812 16 8.00001 16C8.4319 16 8.78194 15.65 8.78194 15.2177V13.9671C8.78194 13.5352 8.43154 13.1851 8.00001 13.1851Z" fill="#FDE097"/>
<path d="M11.6662 4.33342C11.3612 4.02801 11.3612 3.53306 11.6662 3.22766L12.5509 2.34298C12.856 2.03793 13.3513 2.03793 13.6567 2.34298C13.9621 2.64839 13.9621 3.14369 13.6567 3.44874L12.772 4.33342C12.4669 4.63882 11.972 4.63882 11.6662 4.33342Z" fill="#FDE097"/>
<path d="M4.33343 11.6669C4.02803 11.3612 3.53307 11.3612 3.22767 11.6669L2.34299 12.5513C2.03795 12.8563 2.03759 13.352 2.34299 13.657C2.6484 13.9621 3.1437 13.9621 3.44875 13.657L4.33343 12.772C4.63883 12.4669 4.63883 11.9716 4.33343 11.6669Z" fill="#FDE097"/>
<path d="M13.1851 8.00001C13.1851 7.56812 13.5352 7.21808 13.9671 7.21808H15.2181C15.65 7.21808 16 7.56812 16 8.00001C16 8.4319 15.65 8.78159 15.2181 8.78159H13.9671C13.5352 8.78159 13.1851 8.4319 13.1851 8.00001Z" fill="#FDE097"/>
<path d="M2.81453 8.00001C2.81453 7.56812 2.46448 7.21808 2.0326 7.21808H0.781931C0.350044 7.21808 0 7.56812 0 8.00001C0 8.4319 0.350044 8.78159 0.781931 8.78159H2.03295C2.46448 8.78159 2.81453 8.4319 2.81453 8.00001Z" fill="#FDE097"/>
<path d="M11.6662 11.667C11.9717 11.3619 12.467 11.3619 12.772 11.667L13.6567 12.5516C13.9621 12.8563 13.9621 13.352 13.6567 13.657C13.3513 13.9621 12.8563 13.9621 12.5509 13.657L11.6662 12.7724C11.3608 12.467 11.3608 11.972 11.6662 11.667Z" fill="#FDE097"/>
<path d="M4.33338 4.33339C4.63878 4.02799 4.63878 3.53304 4.33338 3.22763L3.4487 2.34331C3.1433 2.03791 2.64835 2.03791 2.34294 2.34331C2.03754 2.64836 2.03754 3.14366 2.34294 3.44871L3.22762 4.33339C3.53302 4.63915 4.02797 4.63915 4.33338 4.33339Z" fill="#FDE097"/>
</svg>
