<svg width="15" height="18" viewBox="0 0 15 18" fill="none" xmlns="http://www.w3.org/2000/svg">
<path d="M13.39 4.10522C12.4775 2.57249 11.2226 1.27236 9.72388 0.306864C9.29784 0.0419898 8.7892 -0.0562204 8.29535 0.0310402C7.8015 0.118301 7.35715 0.384899 7.0474 0.779782C6.8613 1.02164 6.7345 1.30386 6.67721 1.60373C6.61992 1.9036 6.63372 2.21275 6.71752 2.50631C6.97816 3.39749 6.97978 4.34458 6.72219 5.23666C6.4646 6.12873 5.95847 6.92883 5.26308 7.54326C5.20989 7.59624 5.14426 7.63501 5.07221 7.65599C5.00017 7.67698 4.92401 7.67951 4.85074 7.66336C4.77686 7.6522 4.70658 7.62401 4.64544 7.58102C4.58429 7.53804 4.53395 7.48143 4.49837 7.41565L4.32594 7.09286C4.15521 6.76971 3.89766 6.50077 3.58237 6.31639C3.26709 6.13202 2.9066 6.03956 2.54162 6.04944C2.17085 6.05603 1.80917 6.16547 1.49681 6.36558C1.18445 6.5657 0.933647 6.84864 0.772291 7.18294C0.259068 8.21048 -0.00546275 9.34451 8.55068e-05 10.4934C8.55068e-05 12.4843 0.78996 14.3936 2.19595 15.8014C3.60193 17.2091 5.50886 18 7.49723 18C9.48559 18 11.3925 17.2091 12.7985 15.8014C14.2045 14.3936 14.9944 12.4843 14.9944 10.4934V10.4708C15.0628 8.2407 14.5071 6.03582 13.39 4.10522ZM9.01165 14.8397C8.8692 15.5078 8.29192 16.4987 7.49723 16.4987C6.70253 16.4987 6.12525 15.5078 5.9828 14.8397C5.92105 14.4398 5.94387 14.0314 6.04977 13.6408C6.15567 13.2503 6.3423 12.8864 6.59757 12.5727C6.69978 12.4196 6.83243 12.2893 6.98723 12.1898C7.29369 11.9929 7.70076 11.9929 8.00723 12.1898C8.16202 12.2893 8.29467 12.4196 8.39688 12.5727C8.65215 12.8864 8.83878 13.2503 8.94468 13.6408C9.05058 14.0314 9.0734 14.4398 9.01165 14.8397Z" fill="url(#paint0_linear_128_818)"/>
<defs>
<linearGradient id="paint0_linear_128_818" x1="-4.51764e-07" y1="-1.22727" x2="18.7283" y2="12.5068" gradientUnits="userSpaceOnUse">
<stop stop-color="#FF6786"/>
<stop offset="1" stop-color="#FF7B51"/>
</linearGradient>
</defs>
</svg>
