<svg  viewBox="0 0 23 26" fill="none" xmlns="http://www.w3.org/2000/svg">
<g filter="url(#filter0_d_5_45)">
<path d="M17.39 7.10522C16.4775 5.57249 15.2226 4.27236 13.7239 3.30686C13.2978 3.04199 12.7892 2.94378 12.2953 3.03104C11.8015 3.1183 11.3571 3.3849 11.0474 3.77978C10.8613 4.02164 10.7345 4.30386 10.6772 4.60373C10.6199 4.9036 10.6337 5.21275 10.7175 5.50631C10.9782 6.39749 10.9798 7.34458 10.7222 8.23666C10.4646 9.12873 9.95847 9.92883 9.26308 10.5433C9.20989 10.5962 9.14426 10.635 9.07221 10.656C9.00017 10.677 8.92401 10.6795 8.85074 10.6634C8.77686 10.6522 8.70658 10.624 8.64544 10.581C8.58429 10.538 8.53395 10.4814 8.49837 10.4156L8.32594 10.0929C8.15521 9.76971 7.89766 9.50077 7.58237 9.31639C7.26709 9.13202 6.9066 9.03956 6.54162 9.04944C6.17085 9.05603 5.80917 9.16547 5.49681 9.36558C5.18445 9.5657 4.93365 9.84864 4.77229 10.1829C4.25907 11.2105 3.99454 12.3445 4.00009 13.4934C4.00009 15.4843 4.78996 17.3936 6.19595 18.8014C7.60193 20.2091 9.50886 21 11.4972 21C13.4856 21 15.3925 20.2091 16.7985 18.8014C18.2045 17.3936 18.9944 15.4843 18.9944 13.4934V13.4708C19.0628 11.2407 18.5071 9.03582 17.39 7.10522ZM13.0116 17.8397C12.8692 18.5078 12.2919 19.4987 11.4972 19.4987C10.7025 19.4987 10.1252 18.5078 9.9828 17.8397C9.92105 17.4398 9.94387 17.0314 10.0498 16.6408C10.1557 16.2503 10.3423 15.8864 10.5976 15.5727C10.6998 15.4196 10.8324 15.2893 10.9872 15.1898C11.2937 14.9929 11.7008 14.9929 12.0072 15.1898C12.162 15.2893 12.2947 15.4196 12.3969 15.5727C12.6522 15.8864 12.8388 16.2503 12.9447 16.6408C13.0506 17.0314 13.0734 17.4398 13.0116 17.8397Z" fill="url(#paint0_linear_5_45)"/>
</g>
<defs>
<filter id="filter0_d_5_45" x="0" y="0" filterUnits="userSpaceOnUse" color-interpolation-filters="sRGB">
<feFlood flood-opacity="0" result="BackgroundImageFix"/>
<feColorMatrix in="SourceAlpha" type="matrix" values="0 0 0 0 0 0 0 0 0 0 0 0 0 0 0 0 0 0 127 0" result="hardAlpha"/>
<feOffset dy="1"/>
<feGaussianBlur stdDeviation="2"/>
<feComposite in2="hardAlpha" operator="out"/>
<feColorMatrix type="matrix" values="0 0 0 0 0.141667 0 0 0 0 0.141667 0 0 0 0 0.141667 0 0 0 1 0"/>
<feBlend mode="normal" in2="BackgroundImageFix" result="effect1_dropShadow_5_45"/>
<feBlend mode="normal" in="SourceGraphic" in2="effect1_dropShadow_5_45" result="shape"/>
</filter>
<linearGradient id="paint0_linear_5_45" x1="4" y1="1.77273" x2="22.7283" y2="15.5068" gradientUnits="userSpaceOnUse">
<stop stop-color="#FF6786"/>
<stop offset="1" stop-color="#FF7B51"/>
</linearGradient>
</defs>
</svg>
