<svg width="34" height="30" viewBox="0 0 34 30" fill="none" xmlns="http://www.w3.org/2000/svg">
<path fill-rule="evenodd" clip-rule="evenodd" d="M34 16.5486C34 16.7005 33.9626 16.845 33.8918 16.9703L26.6004 28.8565C26.2911 29.3606 25.7197 29.6711 25.1012 29.6711H8.8988C8.28034 29.6711 7.70887 29.3606 7.39964 28.8565L0.107547 16.9691C0.0368914 16.844 0 16.7003 0 16.5486C0 16.0566 0.423747 15.6578 0.946467 15.6578H8.94651L10.9739 18.899L10.9864 18.9183C11.2569 19.3272 11.8262 19.4604 12.2697 19.2147L12.2927 19.2015C12.4972 19.0807 12.6452 18.8907 12.7059 18.6701L15.2892 9.27077L17.5074 24.4032L17.5108 24.4243C17.5927 24.9003 18.0641 25.2301 18.5744 25.1639L18.5976 25.1606C18.967 25.1039 19.2672 24.847 19.3613 24.5045L22.4752 13.175L23.7538 15.219L23.7665 15.2387C23.939 15.4989 24.2423 15.6578 24.5694 15.6578H33.0535C33.5763 15.6578 34 16.0566 34 16.5486ZM25.1012 0C25.7197 0 26.2911 0.310535 26.6004 0.814629L33.8922 12.7014C33.9627 12.8266 34 12.9709 34 13.1225C34 13.6145 33.5763 14.0133 33.0535 14.0133H25.0273L22.9999 10.7721L22.9859 10.7505C22.8576 10.5581 22.6557 10.4187 22.4213 10.3617L22.3993 10.3566C21.9003 10.2468 21.3969 10.5316 21.2679 11.001L18.6845 20.4003L16.4664 5.26793L16.4629 5.24611C16.4026 4.89837 16.1297 4.61585 15.7658 4.52726C15.2597 4.40406 14.7434 4.69029 14.6125 5.16658L11.4985 16.4961L10.22 14.4521L10.2073 14.4324C10.0348 14.1722 9.73149 14.0133 9.40439 14.0133H0.946467C0.423747 14.0133 0 13.6145 0 13.1225C0 12.9721 0.0359011 12.8298 0.105255 12.7054L7.39964 0.814629C7.70887 0.310535 8.28034 0 8.8988 0H25.1012Z" fill="url(#paint0_linear_4_468)"/>
<defs>
<linearGradient id="paint0_linear_4_468" x1="25.9169" y1="2.21327" x2="11.3437" y2="29.2455" gradientUnits="userSpaceOnUse">
<stop stop-color="#00EAFF"/>
<stop offset="0.252531" stop-color="#0080FF"/>
<stop offset="0.497394" stop-color="#8000FF"/>
<stop offset="0.749912" stop-color="#E619E6"/>
<stop offset="0.999136" stop-color="#FF0000"/>
</linearGradient>
</defs>
</svg>
