<svg width="16" height="16" viewBox="0 0 16 16" fill="none" xmlns="http://www.w3.org/2000/svg">
<path fill-rule="evenodd" clip-rule="evenodd" d="M3.89744 0C2.86359 0 1.87241 0.410256 1.14133 1.14133C0.410256 1.87241 0 2.86359 0 3.89744V12.1026C0 13.1364 0.410256 14.1276 1.14133 14.8587C1.87241 15.5897 2.86359 16 3.89744 16H12.1026C13.1364 16 14.1276 15.5897 14.8587 14.8587C15.5897 14.1276 16 13.1364 16 12.1026V3.89744C16 2.86359 15.5897 1.87241 14.8587 1.14133C14.1276 0.410256 13.1364 0 12.1026 0H3.89744ZM4.51282 1.23077H3.89744C3.19015 1.23077 2.51159 1.51138 2.0119 2.0119C1.51138 2.51159 1.23077 3.19015 1.23077 3.89744V12.1026C1.23077 12.8098 1.51138 13.4884 2.0119 13.9881C2.51159 14.4886 3.19015 14.7692 3.89744 14.7692H12.1026C12.8098 14.7692 13.4884 14.4886 13.9881 13.9881C14.4886 13.4884 14.7692 12.8098 14.7692 12.1026V3.89744C14.7692 3.19015 14.4886 2.51159 13.9881 2.0119C13.4884 1.51138 12.8098 1.23077 12.1026 1.23077H11.4872V6.76923C11.4872 6.98831 11.3707 7.19097 11.1803 7.30174C10.9908 7.41169 10.7569 7.41251 10.5666 7.30338L8 5.83713L5.43344 7.30338C5.24308 7.41251 5.00923 7.41169 4.81969 7.30174C4.62933 7.19097 4.51282 6.98831 4.51282 6.76923V1.23077ZM5.74359 1.23077V5.70913L7.69477 4.59405C7.88349 4.48574 8.11651 4.48574 8.30523 4.59405L10.2564 5.70913V1.23077H5.74359Z" fill="white"/>
<line x1="3.377" y1="10.623" x2="12.623" y2="10.623" stroke="white" stroke-width="0.754" stroke-linecap="round"/>
<line x1="3.377" y1="10.623" x2="12.623" y2="10.623" stroke="white" stroke-width="0.754" stroke-linecap="round"/>
<line x1="3.377" y1="10.623" x2="12.623" y2="10.623" stroke="white" stroke-width="0.754" stroke-linecap="round"/>
<line x1="3.377" y1="10.623" x2="12.623" y2="10.623" stroke="white" stroke-width="0.754" stroke-linecap="round"/>
<line x1="3.377" y1="12.623" x2="12.623" y2="12.623" stroke="white" stroke-width="0.754" stroke-linecap="round"/>
<line x1="3.377" y1="12.623" x2="12.623" y2="12.623" stroke="white" stroke-width="0.754" stroke-linecap="round"/>
<line x1="3.377" y1="12.623" x2="12.623" y2="12.623" stroke="white" stroke-width="0.754" stroke-linecap="round"/>
<line x1="3.377" y1="12.623" x2="12.623" y2="12.623" stroke="white" stroke-width="0.754" stroke-linecap="round"/>
</svg>
