<svg width="16" height="16" viewBox="0 0 16 16" fill="none" xmlns="http://www.w3.org/2000/svg">
<path fill-rule="evenodd" clip-rule="evenodd" d="M7.38462 10.8718C7.38462 10.2736 7.14667 9.69928 6.7241 9.2759C6.30072 8.85334 5.72636 8.61539 5.12821 8.61539H2.25641C1.65826 8.61539 1.0839 8.85334 0.660513 9.2759C0.237949 9.69928 0 10.2736 0 10.8718V13.7436C0 14.3417 0.237949 14.9161 0.660513 15.3395C1.0839 15.7621 1.65826 16 2.25641 16H5.12821C5.72636 16 6.30072 15.7621 6.7241 15.3395C7.14667 14.9161 7.38462 14.3417 7.38462 13.7436V10.8718ZM6.15385 10.8718V13.7436C6.15385 14.016 6.04554 14.2761 5.85354 14.4689C5.66072 14.6609 5.40062 14.7692 5.12821 14.7692H2.25641C1.984 14.7692 1.7239 14.6609 1.53108 14.4689C1.33908 14.2761 1.23077 14.016 1.23077 13.7436V10.8718C1.23077 10.5994 1.33908 10.3393 1.53108 10.1465C1.7239 9.95446 1.984 9.84616 2.25641 9.84616H5.12821C5.40062 9.84616 5.66072 9.95446 5.85354 10.1465C6.04554 10.3393 6.15385 10.5994 6.15385 10.8718Z" fill="white"/>
<path fill-rule="evenodd" clip-rule="evenodd" d="M7.38462 2.25641C7.38462 1.65826 7.14667 1.0839 6.7241 0.660513C6.30072 0.237949 5.72636 0 5.12821 0H2.25641C1.65826 0 1.0839 0.237949 0.660513 0.660513C0.237949 1.0839 0 1.65826 0 2.25641V5.12821C0 5.72636 0.237949 6.30072 0.660513 6.7241C1.0839 7.14667 1.65826 7.38462 2.25641 7.38462H5.12821C5.72636 7.38462 6.30072 7.14667 6.7241 6.7241C7.14667 6.30072 7.38462 5.72636 7.38462 5.12821V2.25641ZM6.15385 2.25641V5.12821C6.15385 5.40062 6.04554 5.66072 5.85354 5.85354C5.66072 6.04554 5.40062 6.15385 5.12821 6.15385H2.25641C1.984 6.15385 1.7239 6.04554 1.53108 5.85354C1.33908 5.66072 1.23077 5.40062 1.23077 5.12821V2.25641C1.23077 1.984 1.33908 1.7239 1.53108 1.53108C1.7239 1.33908 1.984 1.23077 2.25641 1.23077H5.12821C5.40062 1.23077 5.66072 1.33908 5.85354 1.53108C6.04554 1.7239 6.15385 1.984 6.15385 2.25641Z" fill="white"/>
<path d="M3.69229 4.3077C4.03216 4.3077 4.30767 4.03219 4.30767 3.69232C4.30767 3.35245 4.03216 3.07693 3.69229 3.07693C3.35242 3.07693 3.0769 3.35245 3.0769 3.69232C3.0769 4.03219 3.35242 4.3077 3.69229 4.3077Z" fill="white"/>
<path d="M3.69229 12.9231C4.03216 12.9231 4.30767 12.6476 4.30767 12.3077C4.30767 11.9678 4.03216 11.6923 3.69229 11.6923C3.35242 11.6923 3.0769 11.9678 3.0769 12.3077C3.0769 12.6476 3.35242 12.9231 3.69229 12.9231Z" fill="white"/>
<path d="M12.3077 4.3077C12.6476 4.3077 12.9231 4.03219 12.9231 3.69232C12.9231 3.35245 12.6476 3.07693 12.3077 3.07693C11.9678 3.07693 11.6923 3.35245 11.6923 3.69232C11.6923 4.03219 11.9678 4.3077 12.3077 4.3077Z" fill="white"/>
<path fill-rule="evenodd" clip-rule="evenodd" d="M14.7692 12.1026V13.7436C14.7692 14.016 14.6609 14.2761 14.4689 14.4689C14.2761 14.6609 14.016 14.7692 13.7436 14.7692C13.2915 14.7692 12.5128 14.7692 12.5128 14.7692C12.1731 14.7692 11.8974 15.0449 11.8974 15.3846C11.8974 15.7243 12.1731 16 12.5128 16H13.7436C14.3417 16 14.9161 15.7621 15.3395 15.3395C15.762 14.9161 16 14.3417 16 13.7436V12.1026C16 11.7629 15.7243 11.4872 15.3846 11.4872C15.0449 11.4872 14.7692 11.7629 14.7692 12.1026Z" fill="white"/>
<path fill-rule="evenodd" clip-rule="evenodd" d="M9.84619 13.7436V10.8718C9.84619 10.3056 10.3057 9.84616 10.8718 9.84616H12.5129C12.8525 9.84616 13.1282 9.57046 13.1282 9.23077C13.1282 8.89108 12.8525 8.61539 12.5129 8.61539C12.5129 8.61539 11.6923 8.61539 10.8718 8.61539C9.62547 8.61539 8.61542 9.62544 8.61542 10.8718V13.7436C8.61542 14.0833 8.89111 14.359 9.2308 14.359C9.57049 14.359 9.84619 14.0833 9.84619 13.7436Z" fill="white"/>
<path fill-rule="evenodd" clip-rule="evenodd" d="M16 2.25641C16 1.65826 15.7621 1.0839 15.3395 0.660513C14.9161 0.237949 14.3418 0 13.7436 0H10.8718C10.2737 0 9.69932 0.237949 9.27593 0.660513C8.85337 1.0839 8.61542 1.65826 8.61542 2.25641V5.12821C8.61542 5.72636 8.85337 6.30072 9.27593 6.7241C9.69932 7.14667 10.2737 7.38462 10.8718 7.38462H13.7436C14.3418 7.38462 14.9161 7.14667 15.3395 6.7241C15.7621 6.30072 16 5.72636 16 5.12821V2.25641ZM14.7693 2.25641V5.12821C14.7693 5.40062 14.661 5.66072 14.469 5.85354C14.2761 6.04554 14.016 6.15385 13.7436 6.15385H10.8718C10.5994 6.15385 10.3393 6.04554 10.1465 5.85354C9.95449 5.66072 9.84619 5.40062 9.84619 5.12821V2.25641C9.84619 1.984 9.95449 1.7239 10.1465 1.53108C10.3393 1.33908 10.5994 1.23077 10.8718 1.23077H13.7436C14.016 1.23077 14.2761 1.33908 14.469 1.53108C14.661 1.7239 14.7693 1.984 14.7693 2.25641Z" fill="white"/>
<path fill-rule="evenodd" clip-rule="evenodd" d="M11.2821 11.8974H13.3334C13.673 11.8974 13.9487 11.6217 13.9487 11.282C13.9487 10.9423 13.673 10.6667 13.3334 10.6667H11.2821C10.9424 10.6667 10.6667 10.9423 10.6667 11.282C10.6667 11.6217 10.9424 11.8974 11.2821 11.8974Z" fill="white"/>
<path fill-rule="evenodd" clip-rule="evenodd" d="M11.2821 13.9487H12.5128C12.8525 13.9487 13.1282 13.673 13.1282 13.3333C13.1282 12.9936 12.8525 12.718 12.5128 12.718H11.2821C10.9424 12.718 10.6667 12.9936 10.6667 13.3333C10.6667 13.673 10.9424 13.9487 11.2821 13.9487Z" fill="white"/>
</svg>
