<svg width="10" height="10" viewBox="0 0 10 10" fill="none" xmlns="http://www.w3.org/2000/svg">
<path d="M6.27418 4.81765C6.1807 4.77981 6.08612 4.74541 5.99085 4.71397C6.57502 4.27581 6.95369 3.57775 6.95369 2.79297C6.95369 1.46952 5.87697 0.39286 4.55358 0.39286C3.23013 0.39286 2.15347 1.46952 2.15347 2.79297C2.15347 3.57844 2.53276 4.27705 3.11783 4.71514C2.58185 4.89155 2.07881 5.16599 1.63865 5.52805C0.831607 6.19191 0.27046 7.11787 0.0586165 8.13539C-0.00776982 8.45422 0.0717835 8.78167 0.276802 9.03384C0.480855 9.2847 0.783351 9.42857 1.1068 9.42857H6.036C6.23089 9.42857 6.38896 9.27057 6.38896 9.07562C6.38896 8.88066 6.23089 8.72266 6.036 8.72266H1.1068C0.956107 8.72266 0.865248 8.63856 0.824437 8.58844C0.754053 8.50185 0.726822 8.38921 0.749709 8.27926C1.11625 6.5186 2.67002 5.23293 4.46376 5.19122C4.49354 5.19233 4.52346 5.19308 4.55358 5.19308C4.58385 5.19308 4.6139 5.19233 4.64396 5.19122C5.11583 5.20191 5.57475 5.29621 6.00953 5.47207C6.19028 5.54508 6.39599 5.45787 6.46906 5.27719C6.54214 5.09643 6.45493 4.89073 6.27418 4.81765ZM2.85939 2.79297C2.85939 1.85881 3.61935 1.09878 4.55358 1.09878C5.48775 1.09878 6.24778 1.85881 6.24778 2.79297C6.24778 3.69998 5.53132 4.4427 4.63465 4.48517C4.60763 4.48476 4.58061 4.48427 4.55358 4.48427C4.52601 4.48427 4.4985 4.48462 4.471 4.48517C3.57502 4.44195 2.85939 3.69949 2.85939 2.79297ZM9.07143 7.81979V7.90645C9.07143 8.40403 8.70952 8.80338 8.22399 8.87122V9.07562C8.22399 9.27057 8.06592 9.42857 7.87104 9.42857C7.67608 9.42857 7.51808 9.27057 7.51808 9.07562V8.88066C7.04028 8.86419 6.67057 8.49076 6.67057 8.01674C6.67057 7.82179 6.82864 7.66379 7.02352 7.66379C7.21848 7.66379 7.37648 7.82179 7.37648 8.01674C7.37648 8.12105 7.46431 8.17558 7.55103 8.17558H8.07667C8.24137 8.17558 8.36552 8.05983 8.36552 7.90645V7.81979C8.36552 7.66303 8.23868 7.54025 8.07667 7.54025H7.75329C7.20579 7.54025 6.76046 7.08899 6.76046 6.53432V6.40562C6.76046 6.13883 6.86456 5.89011 7.05358 5.70515C7.18339 5.57817 7.34339 5.4911 7.51808 5.44981V5.21073C7.51808 5.01578 7.67608 4.85777 7.87104 4.85777C8.06592 4.85777 8.22399 5.01578 8.22399 5.21073V5.43767C8.63548 5.51336 8.9479 5.86632 8.9479 6.28932C8.9479 6.48421 8.78983 6.64228 8.59494 6.64228C8.39999 6.64228 8.24199 6.48421 8.24199 6.28932C8.24199 6.1886 8.14899 6.12842 8.0591 6.12842H7.75329C7.5897 6.12842 7.46638 6.24761 7.46638 6.40562V6.53432C7.46638 6.69694 7.59777 6.83434 7.75329 6.83434H8.07667C8.34167 6.83434 8.59053 6.93519 8.77749 7.11829C8.967 7.30394 9.07143 7.55307 9.07143 7.81979Z" fill="white"/>
</svg>
