<svg width="17" height="16" viewBox="0 0 17 16" fill="none" xmlns="http://www.w3.org/2000/svg">
<circle cx="8.59998" cy="8" r="7.875" fill="#191F26" stroke="#474545" stroke-width="0.25"/>
<path fill-rule="evenodd" clip-rule="evenodd" d="M12.6 7.90415C12.6 7.93999 12.5912 7.97406 12.5745 8.00362L10.8589 10.8078C10.7861 10.9267 10.6517 11 10.5061 11H6.69381C6.54829 11 6.41383 10.9267 6.34107 10.8078L4.62528 8.00336C4.60866 7.97384 4.59998 7.93993 4.59998 7.90415C4.59998 7.78808 4.69968 7.69399 4.82267 7.69399H6.70504L7.18208 8.45864L7.18501 8.46321C7.24867 8.55966 7.38261 8.5911 7.48697 8.53312L7.49237 8.53002C7.54049 8.50153 7.57532 8.4567 7.58959 8.40465L8.19744 6.18716L8.71937 9.75719L8.72016 9.76217C8.73944 9.87448 8.85035 9.95229 8.97042 9.93665L8.97587 9.93588C9.06281 9.9225 9.13344 9.86189 9.15558 9.7811L9.88827 7.10824L10.1891 7.59045L10.1921 7.5951C10.2327 7.6565 10.304 7.69399 10.381 7.69399H12.3773C12.5003 7.69399 12.6 7.78808 12.6 7.90415ZM10.5061 4C10.6517 4 10.7861 4.07326 10.8589 4.19219L12.5746 6.9965C12.5912 7.02604 12.6 7.06009 12.6 7.09585C12.6 7.21192 12.5003 7.30601 12.3773 7.30601H10.4887L10.0117 6.54136L10.0084 6.53627C9.97823 6.49086 9.93072 6.45799 9.87557 6.44452L9.87039 6.44332C9.75299 6.41742 9.63455 6.48461 9.6042 6.59535L8.99633 8.81283L8.47441 5.24281L8.47359 5.23766C8.45941 5.15562 8.39519 5.08897 8.30957 5.06807C8.1905 5.039 8.069 5.10653 8.0382 5.2189L7.3055 7.89175L7.00468 7.40955L7.0017 7.4049C6.9611 7.3435 6.88974 7.30601 6.81277 7.30601H4.82267C4.69968 7.30601 4.59998 7.21192 4.59998 7.09585C4.59998 7.06037 4.60842 7.0268 4.62474 6.99746L6.34107 4.19219C6.41383 4.07326 6.54829 4 6.69381 4H10.5061Z" fill="url(#paint0_linear_19_378)"/>
<defs>
<linearGradient id="paint0_linear_19_378" x1="10.6981" y1="4.52215" x2="7.25495" y2="10.892" gradientUnits="userSpaceOnUse">
<stop stop-color="#00EAFF"/>
<stop offset="0.252531" stop-color="#0080FF"/>
<stop offset="0.497394" stop-color="#8000FF"/>
<stop offset="0.749912" stop-color="#E619E6"/>
<stop offset="0.999136" stop-color="#FF0000"/>
</linearGradient>
</defs>
</svg>
