<svg width="17" height="15" viewBox="0 0 17 15" fill="none" xmlns="http://www.w3.org/2000/svg">
<path d="M13.3953 15H2.64698C1.20317 15 0 13.86 0 12.495V7.02C0 6.33 0.320847 5.655 0.882328 5.19L6.25651 0.63C7.29926 -0.21 8.74307 -0.21 9.78582 0.63L15.16 5.19C15.7215 5.64 16.0423 6.33 16.0423 7.02V12.495C15.9621 13.935 14.8392 15 13.3953 15ZM8.02116 1.545C7.78053 1.545 7.53989 1.62 7.29926 1.77L1.92508 6.33C1.68444 6.48 1.60423 6.78 1.60423 7.095V12.57C1.60423 13.095 2.0855 13.56 2.64698 13.56H13.3151C13.8766 13.56 14.3579 13.11 14.3579 12.57V7.095C14.3579 6.795 14.1975 6.57 14.037 6.33L8.66286 1.77C8.50243 1.62 8.2618 1.545 8.02116 1.545Z" fill="none"/>
<line x1="8.1488" y1="14.125" x2="8.1488" y2="10.875" stroke="none" stroke-width="1.75" stroke-linecap="round"/>
</svg>
