<svg width="9" height="12" viewBox="0 0 9 12" fill="none" xmlns="http://www.w3.org/2000/svg">
<path d="M4.0323 12C4.17683 12 4.32135 11.94 4.43154 11.8202L7.89914 8.0486C8.11972 7.80868 8.11972 7.41969 7.89914 7.17987C7.67864 6.94004 7.32107 6.94004 7.10047 7.17987L4.0323 10.5172L0.964108 7.17998C0.743524 6.94016 0.385991 6.94016 0.165514 7.17998C-0.0551777 7.41981 -0.0551777 7.80879 0.165514 8.04871L3.63305 11.8203C3.7433 11.9401 3.88782 12 4.0323 12Z" fill="#656565"/>
<path d="M4.03228 0C3.88774 0 3.74323 0.0600238 3.63303 0.179819L0.165438 3.9514C-0.0551461 4.19132 -0.0551461 4.58031 0.165438 4.82013C0.385933 5.05996 0.743502 5.05996 0.964104 4.82013L4.03228 1.48283L7.10047 4.82002C7.32105 5.05984 7.67858 5.05984 7.89906 4.82002C8.11975 4.58019 8.11975 4.19121 7.89906 3.95129L4.43152 0.179702C4.32127 0.0598874 4.17676 0 4.03228 0Z" fill="#656565"/>
</svg>
