<svg width="19" height="15" viewBox="0 0 19 15" fill="none" xmlns="http://www.w3.org/2000/svg">
<path d="M17.7554 0.099182L1.81101 6.20945C0.722773 6.64326 0.729227 7.24633 1.61265 7.51524L5.58924 8.74844L7.11078 13.3834C7.29575 13.8907 7.20457 14.0919 7.74072 14.0919C8.15448 14.0919 8.33804 13.9044 8.56849 13.6808C8.71503 13.5383 9.58513 12.6978 10.5567 11.7592L14.6931 14.7958C15.4542 15.213 16.0038 14.9968 16.1933 14.0934L18.9086 1.38044C19.1866 0.273084 18.4837 -0.229207 17.7554 0.099182ZM6.21332 8.46511L15.1766 2.84649C15.624 2.57687 16.0343 2.72183 15.6975 3.01892L8.02256 9.8991L7.72373 13.0659L6.21332 8.46511Z" fill="#2AABEE"/>
</svg>
