<svg width="17" height="16" viewBox="0 0 17 16" fill="none" xmlns="http://www.w3.org/2000/svg">
<path fill-rule="evenodd" clip-rule="evenodd" d="M7.38777 11.8369C4.40787 11.5217 2.08289 8.99782 2.08289 5.93524C2.08289 2.6598 4.7427 0 8.01813 0C11.2936 0 13.9534 2.6598 13.9534 5.93524C13.9534 8.99782 11.6284 11.5217 8.64849 11.8369L11.5228 14.712C11.5752 14.7636 11.6513 14.7841 11.7225 14.7644C11.7938 14.7448 11.8486 14.6883 11.8666 14.6171C11.9911 14.1177 12.1237 13.5888 12.2154 13.2213C12.3439 12.708 12.7442 12.3076 13.2575 12.1791C13.6251 12.0874 14.1539 11.9548 14.6533 11.8304C14.7245 11.8123 14.781 11.7575 14.8007 11.6863C14.8203 11.6151 14.7999 11.5389 14.7483 11.4865C14.0221 10.7612 14.6525 11.3916 13.7241 10.4624C13.4843 10.2233 13.4843 9.83366 13.7241 9.59462C13.9632 9.35475 14.3529 9.35475 14.5919 9.59462C15.5211 10.523 14.8907 9.89261 15.6161 10.6188C15.9812 10.9839 16.122 11.5168 15.9844 12.0137C15.8461 12.5115 15.4515 12.8962 14.9505 13.0215C14.4519 13.1459 13.9231 13.2786 13.5555 13.3702C13.4818 13.3883 13.4245 13.4456 13.4065 13.5192C13.3148 13.8868 13.1822 14.4157 13.0578 14.9142C12.9325 15.4152 12.5477 15.8098 12.05 15.9482C11.5531 16.0857 11.0201 15.9449 10.655 15.5798L8.01813 12.9437L5.38125 15.5798C5.01613 15.9449 4.48318 16.0857 3.98626 15.9482C3.48852 15.8098 3.10375 15.4152 2.9785 14.9142C2.85406 14.4157 2.72144 13.8868 2.62975 13.5192C2.61174 13.4456 2.55444 13.3883 2.48076 13.3702C2.11318 13.2786 1.58433 13.1459 1.08577 13.0215C0.584757 12.8962 0.190166 12.5115 0.051814 12.0137C-0.0857198 11.5168 0.0550886 10.9839 0.420208 10.6188C1.14553 9.89261 0.515172 10.523 1.44434 9.59462C1.68339 9.35475 2.07307 9.35475 2.31212 9.59462C2.55198 9.83366 2.55198 10.2233 2.31212 10.4624C1.38376 11.3916 2.01413 10.7612 1.28798 11.4865C1.23641 11.5389 1.21594 11.6151 1.23559 11.6863C1.25523 11.7575 1.31172 11.8123 1.38294 11.8304C1.88232 11.9548 2.41117 12.0874 2.77875 12.1791C3.29204 12.3076 3.69237 12.708 3.82089 13.2213C3.91258 13.5888 4.0452 14.1177 4.16964 14.6171C4.18765 14.6883 4.2425 14.7448 4.31372 14.7644C4.38495 14.7841 4.46108 14.7636 4.51347 14.712L7.38777 11.8369ZM8.01813 1.22798C10.6165 1.22798 12.7254 3.33683 12.7254 5.93524C12.7254 8.53364 10.6165 10.6425 8.01813 10.6425C5.41972 10.6425 3.31087 8.53364 3.31087 5.93524C3.31087 3.33683 5.41972 1.22798 8.01813 1.22798Z" fill="white"/>
</svg>
