<svg width="19" height="14" viewBox="0 0 19 14" fill="none" xmlns="http://www.w3.org/2000/svg">
<path fill-rule="evenodd" clip-rule="evenodd" d="M17.129 3.48424C17.1357 3.63817 17.138 3.79203 17.138 3.94595C17.138 8.61261 13.4238 14 6.63172 14C4.54533 14 2.60529 13.4123 0.970703 12.4118C1.25965 12.4398 1.55309 12.4608 1.85104 12.4608C3.58095 12.4608 5.17426 11.894 6.4381 10.9424C4.82227 10.9215 3.45787 9.89297 2.98731 8.49367C3.21321 8.53565 3.44585 8.5567 3.68375 8.5567C4.01923 8.5567 4.34494 8.51477 4.65715 8.43082C2.96627 8.10898 1.69269 6.68172 1.69269 4.96758C1.69269 4.94659 1.69269 4.93956 1.69269 4.92556C2.19102 5.18443 2.76139 5.34527 3.36704 5.36626C2.37488 4.72958 1.72269 3.64515 1.72269 2.42076C1.72269 1.77708 1.90431 1.16836 2.22403 0.643623C4.04474 2.78455 6.76682 4.19087 9.83562 4.3378C9.77258 4.07892 9.74029 3.80613 9.74029 3.53327C9.74029 1.58124 11.3936 0 13.4335 0C14.4955 0 15.4546 0.426848 16.1278 1.1125C16.9706 0.958582 17.7601 0.664749 18.4746 0.258952C18.1977 1.08454 17.613 1.77705 16.849 2.21083C17.5965 2.12687 18.3095 1.93811 18.9707 1.65825C18.4746 2.3649 17.8502 2.98749 17.129 3.48424Z" fill="#1DA1F2"/>
</svg>
